<svg xmlns="http://www.w3.org/2000/svg" viewBox="0 0 80 80"><defs><style>.cls-1{fill:#606060;opacity:0;}.cls-2{fill:#fff;}</style></defs><g id="Layer_2" data-name="Layer 2"><g id="Layer_1-2" data-name="Layer 1"><rect class="cls-1" width="80" height="80"/><path class="cls-2" d="M1.43,20.68s27-7.48,36.28,23C37.71,43.73,29.8,17.31,1.43,20.68Z"/><path class="cls-2" d="M56.51,37.87c-5.08,5.25-9.8,14.51-9.8,14.51A82.58,82.58,0,0,1,55.3,37.51C56.12,29.64,52.15,4.41,0,20c0,0,21.92-7.11,34.1,7.44S41.19,65,41.19,65s5.23-15.67,20.13-16S80,63.89,80,63.89,81.78,31.73,56.51,37.87Z"/><path class="cls-2" d="M45.85,58.76s15.2-12.42,29.81,0C75.66,58.76,61.89,42.7,45.85,58.76Z"/></g></g></svg>